<svg width="14" height="11" viewBox="0 0 14 11" fill="none" xmlns="http://www.w3.org/2000/svg">
<path d="M10.756 4.37605L10.027 8.34008C9.97581 8.61831 10.0294 8.86473 10.1876 9.07966C10.3457 9.2945 10.5571 9.43215 10.8216 9.49279C11.0998 9.54396 11.3544 9.49494 11.5855 9.34572C11.8167 9.19654 11.9578 8.98282 12.009 8.70459L13.1793 2.34128C13.2305 2.06314 13.1803 1.81424 13.029 1.59471C12.8777 1.37514 12.6629 1.23976 12.3847 1.18862L6.02141 0.0183544C5.7432 -0.0327856 5.49328 0.023092 5.27155 0.186047C5.04993 0.348943 4.91352 0.569483 4.86233 0.847687C4.82488 1.11642 4.87836 1.36295 5.02288 1.5872C5.16742 1.81147 5.37869 1.94923 5.6569 2.00037L9.62093 2.72939L0.440651 9.05753C0.207372 9.21833 0.0662137 9.43203 0.0171865 9.69861C-0.0318403 9.9652 0.0240419 10.2151 0.184852 10.4484C0.34565 10.6817 0.559342 10.8228 0.825912 10.8718C1.09255 10.9209 1.34244 10.865 1.57572 10.7042L10.756 4.37605Z" fill="black"/>
</svg>
