<svg width="78" height="78" viewBox="0 0 78 78" fill="none" xmlns="http://www.w3.org/2000/svg">
<path d="M19.5078 71.4961V12.9961C19.5078 11.2722 20.1926 9.61889 21.4116 8.3999C22.6306 7.18091 24.2839 6.49609 26.0078 6.49609H52.0078C53.7317 6.49609 55.385 7.18091 56.604 8.3999C57.823 9.61889 58.5078 11.2722 58.5078 12.9961V71.4961H19.5078Z" stroke="#D1F145" stroke-width="8.125" stroke-linecap="round" stroke-linejoin="round"/>
<path d="M19.5 39.002H13C11.2761 39.002 9.62279 39.6868 8.40381 40.9058C7.18482 42.1247 6.5 43.778 6.5 45.502V65.002C6.5 66.7259 7.18482 68.3792 8.40381 69.5981C9.62279 70.8171 11.2761 71.502 13 71.502H19.5" stroke="#D1F145" stroke-width="8.125" stroke-linecap="round" stroke-linejoin="round"/>
<path d="M58.5078 29.252H65.0078C66.7317 29.252 68.385 29.9368 69.604 31.1558C70.823 32.3747 71.5078 34.028 71.5078 35.752V65.002C71.5078 66.7259 70.823 68.3792 69.604 69.5981C68.385 70.8171 66.7317 71.502 65.0078 71.502H58.5078" stroke="#D1F145" stroke-width="8.125" stroke-linecap="round" stroke-linejoin="round"/>
<path d="M32.4922 19.498H45.4922" stroke="#D1F145" stroke-width="8.125" stroke-linecap="round" stroke-linejoin="round"/>
<path d="M32.4921 32.4978H45.4921" stroke="#D1F145" stroke-width="8.125" stroke-linecap="round" stroke-linejoin="round"/>
<path d="M32.4922 45.498H45.4922" stroke="#D1F145" stroke-width="8.125" stroke-linecap="round" stroke-linejoin="round"/>
<path d="M32.4922 58.5H45.4922" stroke="#D1F145" stroke-width="8.125" stroke-linecap="round" stroke-linejoin="round"/>
</svg>
