<svg width="22" height="24" viewBox="0 0 22 24" fill="none" xmlns="http://www.w3.org/2000/svg">
<path d="M21.3926 19.5332C21.2512 20.6762 21.1891 21.1717 20.6611 22.2861L12.5537 23.96C12.7401 22.7556 12.9889 21.8268 13.3926 21.2695L21.3926 19.5332ZM10.1006 11.6484L12.5234 11.123V3.46777C13.4261 2.45449 13.9807 1.99897 15.0703 1.42383V10.5693L21.3926 9.19727C21.2512 10.3405 21.1891 10.8358 20.6611 11.9502L15.0703 13.1318V15.7031L21.3926 14.3652C21.2512 15.5085 21.189 16.0039 20.6611 17.1182L15.0703 18.2725V18.2969L12.5234 18.8232V13.6709L10.1006 14.1826V17.4307L10.0586 17.4385C9.50141 18.4154 8.71512 19.5894 7.95703 20.5264L0 22.041C0.0713521 21.0173 0.220642 20.4404 0.683594 19.4092L7.55371 17.9199V14.7217L1.18555 16.0684C1.25689 15.0445 1.40616 14.4678 1.86914 13.4365L7.55371 12.2021V2.04297C8.45619 1.02996 9.01114 0.57507 10.1006 0V11.6484Z" fill="white"/>
</svg>
