<svg width="48" height="48" viewBox="0 0 48 48" fill="none" xmlns="http://www.w3.org/2000/svg">
<path d="M0 14C0 6.26801 6.26801 0 14 0H34C41.732 0 48 6.26801 48 14V34C48 41.732 41.732 48 34 48H14C6.26801 48 0 41.732 0 34V14Z" fill="#D1F145" fill-opacity="0.2"/>
<path d="M24 22H24.01" stroke="#D1F145" stroke-width="2" stroke-linecap="round" stroke-linejoin="round"/>
<path d="M24 26H24.01" stroke="#D1F145" stroke-width="2" stroke-linecap="round" stroke-linejoin="round"/>
<path d="M24 18H24.01" stroke="#D1F145" stroke-width="2" stroke-linecap="round" stroke-linejoin="round"/>
<path d="M28 22H28.01" stroke="#D1F145" stroke-width="2" stroke-linecap="round" stroke-linejoin="round"/>
<path d="M28 26H28.01" stroke="#D1F145" stroke-width="2" stroke-linecap="round" stroke-linejoin="round"/>
<path d="M28 18H28.01" stroke="#D1F145" stroke-width="2" stroke-linecap="round" stroke-linejoin="round"/>
<path d="M20 22H20.01" stroke="#D1F145" stroke-width="2" stroke-linecap="round" stroke-linejoin="round"/>
<path d="M20 26H20.01" stroke="#D1F145" stroke-width="2" stroke-linecap="round" stroke-linejoin="round"/>
<path d="M20 18H20.01" stroke="#D1F145" stroke-width="2" stroke-linecap="round" stroke-linejoin="round"/>
<path d="M21 34V31C21 30.7348 21.1054 30.4804 21.2929 30.2929C21.4804 30.1054 21.7348 30 22 30H26C26.2652 30 26.5196 30.1054 26.7071 30.2929C26.8946 30.4804 27 30.7348 27 31V34" stroke="#D1F145" stroke-width="2" stroke-linecap="round" stroke-linejoin="round"/>
<path d="M30 14H18C16.8954 14 16 14.8954 16 16V32C16 33.1046 16.8954 34 18 34H30C31.1046 34 32 33.1046 32 32V16C32 14.8954 31.1046 14 30 14Z" stroke="#D1F145" stroke-width="2" stroke-linecap="round" stroke-linejoin="round"/>
</svg>
