<svg width="48" height="48" viewBox="0 0 48 48" fill="none" xmlns="http://www.w3.org/2000/svg">
<path d="M0 14C0 6.26801 6.26801 0 14 0H34C41.732 0 48 6.26801 48 14V34C48 41.732 41.732 48 34 48H14C6.26801 48 0 41.732 0 34V14Z" fill="#D1F145" fill-opacity="0.2"/>
<path d="M24 22C26.2091 22 28 20.2091 28 18C28 15.7909 26.2091 14 24 14C21.7909 14 20 15.7909 20 18C20 20.2091 21.7909 22 24 22Z" stroke="#D1F145" stroke-width="2" stroke-linecap="round" stroke-linejoin="round"/>
<path d="M16 34V32C16 29.7909 17.7909 28 20 28H28C30.2091 28 32 29.7909 32 32V34" stroke="#D1F145" stroke-width="2" stroke-linecap="round" stroke-linejoin="round"/>
</svg>
