<svg width="18" height="17" viewBox="0 0 18 17" fill="none" xmlns="http://www.w3.org/2000/svg">
<path d="M11.2277 12.2395C7.83306 12.2395 5.07124 9.47589 5.07031 6.08024C5.07124 5.21948 5.77192 4.51953 6.63057 4.51953C6.71886 4.51953 6.8062 4.52697 6.88984 4.54184C7.07383 4.57251 7.24855 4.6348 7.40931 4.72868C7.43254 4.74262 7.44834 4.76493 7.45205 4.79095L7.81075 7.05256C7.8154 7.07859 7.80704 7.10554 7.78938 7.12506C7.59145 7.34443 7.33868 7.50246 7.05711 7.58147L6.92144 7.61959L6.97254 7.75064C7.43532 8.92932 8.37762 9.87096 9.55687 10.3357L9.6879 10.3878L9.72599 10.2521C9.80498 9.97042 9.96296 9.71758 10.1823 9.51958C10.1981 9.50471 10.2194 9.49728 10.2408 9.49728C10.2455 9.49728 10.2501 9.49728 10.2557 9.49821L12.5166 9.85701C12.5436 9.86166 12.5659 9.87653 12.5798 9.89977C12.6727 10.0606 12.735 10.2363 12.7666 10.4203C12.7815 10.5021 12.788 10.5886 12.788 10.6787C12.788 11.5386 12.0882 12.2385 11.2277 12.2395Z" fill="#00E510"/>
<path d="M17.2456 7.61303C17.0625 5.54385 16.1146 3.62432 14.5767 2.20862C13.0294 0.784543 11.0222 0 8.92293 0C4.31557 0 0.566869 3.74982 0.566869 8.35854C0.566869 9.90531 0.993399 11.4121 1.80094 12.7246L0 16.7124L5.76618 16.098C6.76887 16.5088 7.8301 16.7171 8.922 16.7171C9.20915 16.7171 9.50374 16.7022 9.79925 16.6715C10.0594 16.6436 10.3224 16.6027 10.5808 16.5507C14.4391 15.7708 17.2558 12.3454 17.2781 8.40315V8.35854C17.2781 8.10756 17.2669 7.85658 17.2446 7.61396L17.2456 7.61303ZM5.98828 14.3476L2.79807 14.6879L3.75058 12.5768L3.56007 12.3212C3.54613 12.3026 3.5322 12.284 3.5164 12.2627C2.68934 11.1202 2.25257 9.77053 2.25257 8.35947C2.25257 4.6803 5.24485 1.68714 8.92293 1.68714C12.3687 1.68714 15.2894 4.37633 15.571 7.80917C15.5859 7.99322 15.5942 8.1782 15.5942 8.3604C15.5942 8.41245 15.5933 8.46357 15.5924 8.51842C15.5217 11.5962 13.3723 14.2101 10.3652 14.8756C10.1356 14.9267 9.90053 14.9658 9.66636 14.9909C9.42288 15.0188 9.17291 15.0327 8.92479 15.0327C8.04105 15.0327 7.1824 14.8617 6.37114 14.5233C6.281 14.4871 6.19271 14.448 6.11001 14.4081L5.98921 14.3495L5.98828 14.3476Z" fill="#00E510"/>
</svg>
