<svg width="20" height="14" viewBox="0 0 20 14" fill="none" xmlns="http://www.w3.org/2000/svg">
<path d="M17.5333 3.1334H8.73333C8.28889 3.1334 7.86667 3.26673 7.46667 3.5334C7.37778 2.86673 7.1 2.32229 6.63333 1.90006C6.16667 1.47784 5.62222 1.26673 5 1.26673C4.51111 1.26673 4.06667 1.37784 3.66667 1.60006V0.600064C3.66667 0.422287 3.61111 0.277843 3.5 0.166731C3.38889 0.0556202 3.24444 6.48499e-05 3.06667 6.48499e-05H0.6C0.422222 6.48499e-05 0.277778 0.0556202 0.166667 0.166731C0.0555556 0.277843 0 0.422287 0 0.600064V13.1334C0 13.3112 0.0555556 13.4556 0.166667 13.5667C0.277778 13.6778 0.422222 13.7334 0.6 13.7334H3.06667C3.24444 13.7334 3.38889 13.6778 3.5 13.5667C3.61111 13.4556 3.66667 13.3112 3.66667 13.1334V11.2001H16.3333V13.1334C16.3333 13.3112 16.3889 13.4556 16.5 13.5667C16.6111 13.6778 16.7556 13.7334 16.9333 13.7334H19.4C19.5778 13.7334 19.7222 13.6778 19.8333 13.5667C19.9444 13.4556 20 13.3112 20 13.1334V5.60006C20 4.9334 19.7556 4.35562 19.2667 3.86673C18.7778 3.37784 18.2 3.1334 17.5333 3.1334ZM5 2.40006C5.35556 2.40006 5.65556 2.5334 5.9 2.80006C6.14444 3.06673 6.26667 3.37784 6.26667 3.7334C6.26667 4.08895 6.14444 4.38895 5.9 4.6334C5.65556 4.87784 5.35556 5.00006 5 5.00006C4.64444 5.00006 4.33333 4.87784 4.06667 4.6334C3.8 4.38895 3.66667 4.08895 3.66667 3.7334C3.66667 3.37784 3.8 3.06673 4.06667 2.80006C4.33333 2.5334 4.64444 2.40006 5 2.40006ZM3.66667 5.80006C4.06667 6.06673 4.5 6.20006 4.96667 6.20006C5.43333 6.20006 5.86667 6.06673 6.26667 5.80006V7.5334H3.66667V5.80006ZM18.8 12.5334H17.4667V10.6001C17.4667 10.4667 17.4111 10.3445 17.3 10.2334C17.1889 10.1223 17.0667 10.0667 16.9333 10.0667H3.06667C2.93333 10.0667 2.81111 10.1223 2.7 10.2334C2.58889 10.3445 2.53333 10.4667 2.53333 10.6001V12.5334H1.2V1.20006H2.53333V8.1334C2.53333 8.26673 2.58889 8.40006 2.7 8.5334C2.81111 8.66673 2.93333 8.7334 3.06667 8.7334H18.8V12.5334ZM18.8 7.5334H7.46667V5.60006C7.46667 5.24451 7.58889 4.94451 7.83333 4.70006C8.07778 4.45562 8.37778 4.3334 8.73333 4.3334H17.5333C17.8889 4.3334 18.1889 4.45562 18.4333 4.70006C18.6778 4.94451 18.8 5.24451 18.8 5.60006V7.5334Z" fill="white"/>
</svg>
